<svg width="526" height="223" viewBox="0 0 526 223" fill="none" xmlns="http://www.w3.org/2000/svg">
<mask id="path-1-inside-1_14_242" fill="white">
<path d="M526 112C526 129.207 520.898 146.028 511.338 160.335C501.778 174.642 488.191 185.793 472.293 192.378C456.396 198.962 438.903 200.685 422.027 197.328C405.151 193.971 389.649 185.685 377.482 173.518L406.536 144.464C412.957 150.884 421.138 155.257 430.043 157.028C438.949 158.8 448.18 157.891 456.569 154.416C464.958 150.941 472.128 145.056 477.173 137.506C482.218 129.957 484.91 121.08 484.91 112H526Z"/>
</mask>
<path d="M526 112C526 129.207 520.898 146.028 511.338 160.335C501.778 174.642 488.191 185.793 472.293 192.378C456.396 198.962 438.903 200.685 422.027 197.328C405.151 193.971 389.649 185.685 377.482 173.518L406.536 144.464C412.957 150.884 421.138 155.257 430.043 157.028C438.949 158.8 448.18 157.891 456.569 154.416C464.958 150.941 472.128 145.056 477.173 137.506C482.218 129.957 484.91 121.08 484.91 112H526Z" fill="#E5E5E5" stroke="#041FCB" stroke-width="8" mask="url(#path-1-inside-1_14_242)"/>
<mask id="path-2-inside-2_14_242" fill="white">
<path d="M247.5 0C225.447 2.62975e-07 203.89 6.53936 185.554 18.7911C167.218 31.0429 152.927 48.4568 144.487 68.8308C136.048 89.2048 133.84 111.624 138.142 133.253C142.445 154.881 153.064 174.749 168.658 190.342C184.251 205.936 204.119 216.555 225.747 220.858C247.376 225.16 269.795 222.952 290.169 214.513C310.543 206.073 327.957 191.782 340.209 173.446C352.461 155.11 359 133.553 359 111.5L309.436 111.5C309.436 123.75 305.803 135.724 298.998 145.91C292.192 156.095 282.519 164.034 271.202 168.721C259.885 173.409 247.431 174.636 235.417 172.246C223.402 169.856 212.367 163.957 203.705 155.295C195.043 146.633 189.144 135.598 186.754 123.583C184.364 111.569 185.591 99.1155 190.279 87.7981C194.966 76.4808 202.905 66.8078 213.09 60.0021C223.276 53.1965 235.25 49.5641 247.5 49.5641L247.5 0Z"/>
</mask>
<path d="M247.5 0C225.447 2.62975e-07 203.89 6.53936 185.554 18.7911C167.218 31.0429 152.927 48.4568 144.487 68.8308C136.048 89.2048 133.84 111.624 138.142 133.253C142.445 154.881 153.064 174.749 168.658 190.342C184.251 205.936 204.119 216.555 225.747 220.858C247.376 225.16 269.795 222.952 290.169 214.513C310.543 206.073 327.957 191.782 340.209 173.446C352.461 155.11 359 133.553 359 111.5L309.436 111.5C309.436 123.75 305.803 135.724 298.998 145.91C292.192 156.095 282.519 164.034 271.202 168.721C259.885 173.409 247.431 174.636 235.417 172.246C223.402 169.856 212.367 163.957 203.705 155.295C195.043 146.633 189.144 135.598 186.754 123.583C184.364 111.569 185.591 99.1155 190.279 87.7981C194.966 76.4808 202.905 66.8078 213.09 60.0021C223.276 53.1965 235.25 49.5641 247.5 49.5641L247.5 0Z" fill="#E5E5E5" stroke="#041FCB" stroke-width="8" mask="url(#path-2-inside-2_14_242)"/>
<circle cx="44" cy="112" r="42" fill="#18D67B" stroke="white" stroke-width="4"/>
</svg>
