<svg width="301" height="368" viewBox="0 0 301 368" fill="none" xmlns="http://www.w3.org/2000/svg">
<path d="M47.5556 335.698C47.5556 298.964 57.2675 264.5 74.2636 234.732C66.1643 235.71 57.9188 236.214 49.5556 236.214C35.938 236.214 25.9297 239.462 18.7279 244.759C11.5304 250.053 6.95605 257.526 4.43903 266.303C-0.623169 283.956 2.72321 306.63 9.62808 326.105C13.0685 335.808 17.3585 344.619 21.833 351.502C26.3541 358.457 30.9017 363.192 34.759 365.091C36.6435 366.018 38.1872 366.185 39.4435 365.82C40.6904 365.459 42.0148 364.469 43.2552 362.345C45.8004 357.986 47.5556 349.583 47.5556 335.698ZM218.997 138.407C161.289 147.828 111.885 181.963 82.0026 229.593C139.711 220.172 189.115 186.037 218.997 138.407ZM253.444 32.3023C253.444 69.0357 243.732 103.5 226.736 133.268C234.836 132.29 243.081 131.786 251.444 131.786C265.062 131.786 275.07 128.538 282.272 123.241C289.47 117.947 294.044 110.474 296.561 101.697C301.623 84.0439 298.277 61.3703 291.372 41.8955C287.932 32.1919 283.642 23.3814 279.167 16.498C274.646 9.54288 270.098 4.80762 266.241 2.9093C264.357 1.98185 262.813 1.8153 261.557 2.17976C260.31 2.54148 258.985 3.531 257.745 5.65521C255.2 10.0136 253.444 18.4168 253.444 32.3023Z" stroke="#041FCB" stroke-width="4"/>
</svg>
