<svg width="187" height="189" viewBox="0 0 187 189" fill="none" xmlns="http://www.w3.org/2000/svg">
<circle cx="93.0806" cy="93.0806" r="75" transform="rotate(-15 93.0806 93.0806)" stroke="#041FCB" stroke-width="2"/>
<path d="M121.092 85.5749C126.5 105.756 128.153 124.849 126.486 139.385C125.653 146.657 123.994 152.735 121.602 157.23C119.21 161.723 116.137 164.548 112.492 165.525C108.847 166.502 104.773 165.592 100.455 162.896C96.1355 160.199 91.6603 155.765 87.3026 149.885C78.591 138.129 70.4764 120.768 65.0688 100.586C59.6611 80.4047 58.008 61.3122 59.6748 46.7759C60.5085 39.5046 62.1669 33.4267 64.5594 28.9313C66.951 24.4379 70.0242 21.6128 73.6692 20.6362C77.3141 19.6595 81.3882 20.5694 85.706 23.2651C90.0257 25.962 94.5009 30.3964 98.8586 36.2767C107.57 48.0321 115.685 65.3932 121.092 85.5749Z" stroke="#041FCB" stroke-width="2"/>
<path d="M147.172 78.5868C152.555 98.6756 151.47 118.417 145.413 134.084C139.355 149.751 128.361 161.273 113.941 165.137C99.5207 169.001 84.2384 164.519 71.1587 153.98C58.0797 143.441 47.2693 126.887 41.8865 106.798C36.5038 86.7092 37.5886 66.9675 43.646 51.3013C49.7038 35.6341 60.6978 24.1119 75.1181 20.248C89.5383 16.3841 104.821 20.8657 117.9 31.4049C130.979 41.9435 141.79 58.4979 147.172 78.5868Z" stroke="#041FCB" stroke-width="2"/>
<line x1="19.4114" y1="111.785" x2="166.232" y2="72.4444" stroke="#041FCB" stroke-width="2"/>
<line x1="72.4444" y1="19.9291" x2="111.785" y2="166.75" stroke="#041FCB" stroke-width="2"/>
<line x1="21.6851" y1="73.9058" x2="145.324" y2="40.7769" stroke="#041FCB" stroke-width="2"/>
<line x1="40.5788" y1="144.418" x2="164.217" y2="111.29" stroke="#041FCB" stroke-width="2"/>
</svg>
