<svg width="526" height="223" viewBox="0 0 526 223" fill="none" xmlns="http://www.w3.org/2000/svg"><mask id="a" fill="#fff"><path d="M526 112a87 87 0 01-148.5 61.5l29-29A46 46 0 00485 112H526z"/></mask><path d="M526 112a87 87 0 01-148.5 61.5l29-29A46 46 0 00485 112H526z" fill="#E5E5E5" stroke="#041FCB" stroke-width="8" mask="url(#a)"/><mask id="b" fill="#fff"><path d="M247.5 0A111.5 111.5 0 10359 111.5h-49.6a62 62 0 11-61.9-62V0z"/></mask><path d="M247.5 0A111.5 111.5 0 10359 111.5h-49.6a62 62 0 11-61.9-62V0z" fill="#E5E5E5" stroke="#041FCB" stroke-width="8" mask="url(#b)"/><circle cx="44" cy="112" r="42" fill="#18D67B" stroke="#fff" stroke-width="4"/></svg>