<svg width="77" height="77" viewBox="0 0 77 77" fill="none" xmlns="http://www.w3.org/2000/svg">
<mask id="path-1-inside-1_37_534" fill="white">
<path d="M38.3679 0C30.7794 9.0803e-08 23.3614 2.25799 17.0518 6.48842C10.7422 10.7189 5.82454 16.7317 2.92056 23.7667C0.0165915 30.8016 -0.74322 38.5427 0.737213 46.011C2.21765 53.4792 5.87183 60.3393 11.2377 65.7236C16.6035 71.1079 23.44 74.7747 30.8827 76.2602C38.3253 77.7458 46.0398 76.9833 53.0506 74.0694C60.0614 71.1554 66.0537 66.2207 70.2696 59.8895C74.4855 53.5582 76.7357 46.1146 76.7357 38.5L59.6804 38.5C59.6804 42.7297 58.4304 46.8645 56.0886 50.3814C53.7467 53.8983 50.4182 56.6394 46.5238 58.258C42.6295 59.8767 38.3442 60.3002 34.21 59.475C30.0757 58.6498 26.2782 56.613 23.2976 53.6222C20.317 50.6313 18.2872 46.8207 17.4648 42.6722C16.6425 38.5237 17.0645 34.2237 18.6776 30.3159C20.2907 26.4082 23.0224 23.0681 26.5272 20.7182C30.0321 18.3683 34.1526 17.114 38.3679 17.114L38.3679 0Z"/>
</mask>
<path d="M38.3679 0C30.7794 9.0803e-08 23.3614 2.25799 17.0518 6.48842C10.7422 10.7189 5.82454 16.7317 2.92056 23.7667C0.0165915 30.8016 -0.74322 38.5427 0.737213 46.011C2.21765 53.4792 5.87183 60.3393 11.2377 65.7236C16.6035 71.1079 23.44 74.7747 30.8827 76.2602C38.3253 77.7458 46.0398 76.9833 53.0506 74.0694C60.0614 71.1554 66.0537 66.2207 70.2696 59.8895C74.4855 53.5582 76.7357 46.1146 76.7357 38.5L59.6804 38.5C59.6804 42.7297 58.4304 46.8645 56.0886 50.3814C53.7467 53.8983 50.4182 56.6394 46.5238 58.258C42.6295 59.8767 38.3442 60.3002 34.21 59.475C30.0757 58.6498 26.2782 56.613 23.2976 53.6222C20.317 50.6313 18.2872 46.8207 17.4648 42.6722C16.6425 38.5237 17.0645 34.2237 18.6776 30.3159C20.2907 26.4082 23.0224 23.0681 26.5272 20.7182C30.0321 18.3683 34.1526 17.114 38.3679 17.114L38.3679 0Z" stroke="#041FCB" stroke-width="4" mask="url(#path-1-inside-1_37_534)"/>
</svg>
