<svg width="581" height="661" viewBox="0 0 581 661" fill="none" xmlns="http://www.w3.org/2000/svg">
<g clip-path="url(#clip0_43_763)">
<path d="M382.62 87.05H318C316.938 87.0267 315.926 86.5909 315.18 85.835C314.433 85.0791 314.01 84.0624 314 83V4.06C314.005 2.9951 314.426 1.97437 315.174 1.21578C315.921 0.457187 316.935 0.0208688 318 0L382.61 0C383.685 0.00525759 384.715 0.434695 385.475 1.19496C386.235 1.95522 386.665 2.98484 386.67 4.06V83C386.677 83.5337 386.577 84.0634 386.375 84.5578C386.174 85.0522 385.876 85.5013 385.499 85.8787C385.121 86.2562 384.672 86.5542 384.178 86.7554C383.683 86.9565 383.154 87.0567 382.62 87.05ZM322.27 78.73H378.56V8.12H322.27V78.73Z" fill="#041FCB"/>
<path d="M447 87.05H382.4C381.331 87.037 380.309 86.6058 379.554 85.8488C378.799 85.0918 378.37 84.0692 378.36 83V4.06C378.368 2.98393 378.8 1.95431 379.561 1.19433C380.323 0.434347 381.354 0.00523326 382.43 0L447 0C448.077 0.00262653 449.109 0.430902 449.871 1.19145C450.634 1.95199 451.065 2.98312 451.07 4.06V83C451.098 83.5408 451.011 84.0814 450.816 84.5865C450.621 85.0917 450.322 85.5502 449.938 85.9321C449.554 86.3141 449.094 86.611 448.588 86.8036C448.082 86.9962 447.541 87.0802 447 87.05V87.05ZM386.65 78.73H443V8.12H386.68L386.65 78.73Z" fill="#041FCB"/>
<path d="M382.62 172H318C316.929 171.976 315.91 171.534 315.162 170.767C314.415 170 313.997 168.971 314 167.9V82.9999C314 81.9316 314.419 80.9057 315.167 80.1428C315.915 79.38 316.932 78.9409 318 78.9199H382.61C383.69 78.9252 384.723 79.3571 385.486 80.1214C386.248 80.8857 386.677 81.9204 386.68 82.9999V167.9C386.694 168.439 386.598 168.975 386.399 169.475C386.201 169.976 385.903 170.432 385.524 170.815C385.144 171.198 384.692 171.5 384.193 171.704C383.694 171.907 383.159 172.008 382.62 172V172ZM322.27 163.68H378.56V87.0499H322.27V163.68Z" fill="#041FCB"/>
<path d="M447 172H382.4C381.322 171.995 380.29 171.564 379.528 170.802C378.766 170.04 378.335 169.008 378.33 167.93V83C378.338 81.9239 378.769 80.8943 379.531 80.1343C380.293 79.3743 381.324 78.9452 382.4 78.94H447C448.081 78.9373 449.12 79.3629 449.888 80.1237C450.656 80.8846 451.092 81.9187 451.1 83V167.9C451.134 168.447 451.051 168.995 450.856 169.508C450.662 170.021 450.361 170.486 449.974 170.874C449.586 171.261 449.121 171.562 448.608 171.756C448.095 171.951 447.547 172.034 447 172V172ZM386.65 163.68H443V87.05H386.68L386.65 163.68Z" fill="#041FCB"/>
<path d="M447 257.85H382.4C381.323 257.847 380.291 257.419 379.528 256.659C378.766 255.898 378.335 254.867 378.33 253.79V168.1C378.338 167.023 378.769 165.992 379.531 165.231C380.292 164.469 381.323 164.038 382.4 164.03H447C448.078 164.035 449.11 164.466 449.872 165.228C450.634 165.99 451.065 167.022 451.07 168.1V253.79C451.078 254.326 450.978 254.859 450.777 255.356C450.575 255.853 450.275 256.304 449.895 256.683C449.516 257.061 449.064 257.36 448.566 257.56C448.069 257.761 447.536 257.859 447 257.85V257.85ZM386.65 249.53H443V172.16H386.68L386.65 249.53Z" fill="#041FCB"/>
<path d="M382.62 257.85H318C316.925 257.845 315.895 257.415 315.135 256.655C314.375 255.895 313.945 254.865 313.94 253.79V168.1C313.937 167.019 314.363 165.98 315.124 165.212C315.885 164.444 316.919 164.008 318 164H382.61C383.686 164.008 384.716 164.44 385.476 165.201C386.236 165.963 386.665 166.994 386.67 168.07V253.76C386.673 254.839 386.248 255.874 385.489 256.641C384.73 257.407 383.699 257.842 382.62 257.85ZM322.27 249.53H378.56V172.16H322.27V249.53Z" fill="#041FCB"/>
<path d="M382.62 489.59H318C316.925 489.585 315.895 489.155 315.135 488.395C314.375 487.635 313.945 486.605 313.94 485.53V406.61C313.943 405.533 314.371 404.501 315.131 403.739C315.892 402.976 316.923 402.545 318 402.54H382.61C383.686 402.548 384.716 402.98 385.476 403.741C386.236 404.503 386.665 405.534 386.67 406.61V485.53C386.678 486.065 386.579 486.595 386.378 487.091C386.178 487.586 385.88 488.037 385.502 488.415C385.125 488.794 384.675 489.093 384.18 489.295C383.685 489.496 383.155 489.597 382.62 489.59ZM322.27 481.27H378.56V410.67H322.27V481.27Z" fill="#041FCB"/>
<path d="M447 489.59H382.4C381.323 489.587 380.291 489.159 379.528 488.399C378.766 487.638 378.335 486.607 378.33 485.53V406.61C378.335 405.532 378.766 404.5 379.528 403.738C380.29 402.976 381.322 402.545 382.4 402.54H447C448.078 402.545 449.11 402.976 449.872 403.738C450.634 404.5 451.065 405.532 451.07 406.61V485.53C451.099 486.072 451.013 486.613 450.819 487.12C450.625 487.626 450.326 488.086 449.942 488.469C449.558 488.852 449.097 489.15 448.59 489.343C448.083 489.536 447.542 489.62 447 489.59V489.59ZM386.65 481.27H443V410.67H386.68L386.65 481.27Z" fill="#041FCB"/>
<path d="M382.62 574.51H318C316.926 574.502 315.897 574.072 315.138 573.312C314.378 572.552 313.948 571.524 313.94 570.45V485.53C313.945 484.455 314.375 483.425 315.135 482.665C315.895 481.905 316.925 481.475 318 481.47H382.61C383.685 481.475 384.715 481.905 385.475 482.665C386.235 483.425 386.665 484.455 386.67 485.53V570.45C386.678 570.985 386.579 571.515 386.378 572.011C386.178 572.506 385.88 572.957 385.502 573.335C385.125 573.714 384.675 574.013 384.18 574.214C383.685 574.416 383.155 574.517 382.62 574.51V574.51ZM322.27 566.19H378.56V489.59H322.27V566.19Z" fill="#041FCB"/>
<path d="M447 574.51H382.4C381.324 574.505 380.293 574.076 379.531 573.316C378.769 572.556 378.338 571.526 378.33 570.45V485.53C378.338 484.454 378.769 483.424 379.531 482.664C380.293 481.904 381.324 481.475 382.4 481.47H447C448.077 481.473 449.109 481.901 449.871 482.661C450.634 483.422 451.065 484.453 451.07 485.53V570.45C451.099 570.992 451.013 571.533 450.819 572.04C450.625 572.546 450.326 573.006 449.942 573.389C449.558 573.772 449.097 574.07 448.59 574.263C448.083 574.456 447.542 574.54 447 574.51V574.51ZM386.65 566.19H443V489.59H386.68L386.65 566.19Z" fill="#041FCB"/>
<path d="M447 660.4H382.4C381.322 660.395 380.29 659.964 379.528 659.202C378.766 658.44 378.335 657.408 378.33 656.33V570.45C378.338 569.373 378.769 568.342 379.531 567.581C380.292 566.819 381.323 566.388 382.4 566.38H447C448.078 566.385 449.11 566.816 449.872 567.578C450.634 568.34 451.065 569.372 451.07 570.45V656.14C451.106 656.693 451.027 657.247 450.838 657.767C450.649 658.288 450.353 658.763 449.971 659.164C449.588 659.564 449.126 659.881 448.615 660.094C448.104 660.307 447.554 660.411 447 660.4ZM386.65 652.08H443V574.51H386.68L386.65 652.08Z" fill="#041FCB"/>
<path d="M382.62 660.4H318C316.924 660.392 315.894 659.96 315.134 659.198C314.374 658.437 313.945 657.406 313.94 656.33V570.45C313.945 569.374 314.374 568.343 315.134 567.581C315.894 566.819 316.924 566.388 318 566.38H382.61C383.686 566.388 384.716 566.819 385.476 567.581C386.236 568.343 386.665 569.374 386.67 570.45V656.14C386.687 656.686 386.596 657.231 386.401 657.742C386.206 658.253 385.912 658.72 385.535 659.116C385.158 659.513 384.707 659.83 384.206 660.05C383.706 660.271 383.167 660.39 382.62 660.4ZM322.27 652.08H378.56V574.51H322.27V652.08Z" fill="#041FCB"/>
<path d="M515.12 410.67H250.12C232.784 410.657 216.162 403.764 203.904 391.506C191.646 379.248 184.753 362.626 184.74 345.29V314.72C184.751 297.383 191.642 280.76 203.901 268.501C216.16 256.242 232.783 249.351 250.12 249.34H515.12C532.458 249.351 549.082 256.242 561.342 268.501C573.603 280.759 580.497 297.383 580.51 314.72V345.29C580.31 381.27 551.1 410.67 515.12 410.67ZM250.12 257.85C234.995 257.882 220.498 263.905 209.804 274.601C199.11 285.297 193.089 299.795 193.06 314.92V345.48C193.086 360.605 199.107 375.103 209.802 385.798C220.497 396.494 234.995 402.514 250.12 402.54H515.12C530.246 402.514 544.745 396.494 555.442 385.799C566.139 375.104 572.161 360.606 572.19 345.48V314.92C572.161 299.793 566.139 285.294 555.442 274.598C544.746 263.901 530.247 257.879 515.12 257.85H250.12Z" fill="#041FCB"/>
<path d="M189 334.26H119.74C118.665 334.255 117.635 333.825 116.875 333.065C116.115 332.305 115.685 331.275 115.68 330.2C115.717 329.135 116.157 328.124 116.91 327.371C117.664 326.617 118.675 326.177 119.74 326.14H189C190.077 326.14 191.109 326.568 191.871 327.329C192.632 328.091 193.06 329.123 193.06 330.2C193.06 331.277 192.632 332.31 191.871 333.071C191.109 333.832 190.077 334.26 189 334.26Z" fill="#041FCB"/>
<path d="M94.2 359.79C88.3452 359.79 82.622 358.054 77.7541 354.801C72.8862 351.548 69.0923 346.924 66.8522 341.515C64.6121 336.106 64.0265 330.154 65.1695 324.412C66.3124 318.67 69.1325 313.395 73.2732 309.256C77.4138 305.117 82.6889 302.299 88.4314 301.158C94.1739 300.017 100.126 300.604 105.534 302.846C110.943 305.088 115.565 308.884 118.816 313.753C122.068 318.622 123.802 324.345 123.8 330.2C123.766 338.039 120.636 345.547 115.092 351.089C109.548 356.631 102.039 359.759 94.2 359.79V359.79ZM94.2 308.73C89.9908 308.73 85.8761 309.978 82.3764 312.317C78.8767 314.656 76.1492 317.98 74.5389 321.869C72.9285 325.758 72.5077 330.037 73.3296 334.165C74.1515 338.293 76.1792 342.085 79.1563 345.061C82.1334 348.037 85.926 350.062 90.0546 350.882C94.1832 351.702 98.4622 351.28 102.35 349.667C106.239 348.055 109.561 345.326 111.899 341.825C114.236 338.325 115.482 334.209 115.48 330C115.489 327.203 114.945 324.433 113.879 321.847C112.813 319.262 111.245 316.913 109.267 314.936C107.289 312.959 104.94 311.393 102.354 310.327C99.7677 309.262 96.9966 308.72 94.2 308.73V308.73Z" fill="#041FCB"/>
<path d="M94.2 392.48C77.8177 392.272 62.1767 385.619 50.6654 373.961C39.154 362.303 32.6992 346.579 32.6992 330.195C32.6992 313.811 39.154 298.087 50.6654 286.429C62.1767 274.771 77.8177 268.117 94.2 267.91C95.2813 267.915 96.3164 268.348 97.0791 269.115C97.8419 269.881 98.27 270.919 98.27 272C98.2133 273.054 97.7642 274.049 97.0111 274.79C96.258 275.53 95.2553 275.961 94.2 276C79.8783 276 66.1432 281.689 56.0162 291.816C45.8893 301.943 40.2 315.678 40.2 330C40.2 344.322 45.8893 358.057 56.0162 368.184C66.1432 378.311 79.8783 384 94.2 384C95.2658 384.005 96.2877 384.426 97.0479 385.173C97.808 385.92 98.2465 386.934 98.27 388C98.27 390.16 96.53 392.48 94.2 392.48Z" fill="#041FCB"/>
<path d="M94.2 424.21C69.3834 423.954 45.67 413.917 28.2118 396.278C10.7535 378.638 0.960571 354.823 0.960571 330.005C0.960571 305.187 10.7535 281.372 28.2118 263.733C45.67 246.093 69.3834 236.056 94.2 235.8C95.2769 235.803 96.309 236.231 97.0715 236.991C97.8339 237.752 98.2647 238.783 98.27 239.86C98.2302 240.926 97.7883 241.937 97.0332 242.69C96.2781 243.443 95.2659 243.883 94.2 243.92C71.4205 243.92 49.5741 252.969 33.4666 269.077C17.3591 285.184 8.30997 307.031 8.30997 329.81C8.30997 352.589 17.3591 374.436 33.4666 390.543C49.5741 406.651 71.4205 415.7 94.2 415.7C95.2769 415.703 96.309 416.131 97.0715 416.891C97.8339 417.652 98.2647 418.683 98.27 419.76C98.27 421.89 96.53 424.21 94.2 424.21Z" fill="#041FCB"/>
<path d="M505.65 375.08H259.4C258.324 375.072 257.294 374.64 256.534 373.879C255.774 373.117 255.345 372.086 255.34 371.01C255.392 369.955 255.838 368.957 256.589 368.215C257.341 367.472 258.344 367.039 259.4 367H505.65C506.693 367.052 507.677 367.503 508.397 368.259C509.117 369.016 509.518 370.02 509.518 371.065C509.518 372.11 509.117 373.114 508.397 373.871C507.677 374.627 506.693 375.078 505.65 375.13V375.08Z" fill="#041FCB"/>
</g>
<defs>
<clipPath id="clip0_43_763">
<rect width="580.51" height="660.4" fill="white"/>
</clipPath>
</defs>
</svg>
