<svg width="115" height="140" viewBox="0 0 115 140" fill="none" xmlns="http://www.w3.org/2000/svg"><path d="M17 127.7c0-13.3 3.3-25.9 9.1-37-2.3.3-4.7.4-7.2.4-5 0-8.5 1.2-11 3a13.7 13.7 0 00-5 7.6 38.3 38.3 0 002 22c1.2 3.6 2.8 6.8 4.5 9.3 1.7 2.6 3.3 4.2 4.4 4.8l1 .2.7-.8c.8-1.3 1.4-4.2 1.4-9.5zm64-73.3a75.2 75.2 0 00-47 31.2 75.2 75.2 0 0047-31.2zm17-42.1c0 13.3-3.3 25.9-9.1 37 2.3-.3 4.7-.4 7.2-.4 5 0 8.5-1.2 11-3s4.1-4.4 5-7.6c1.8-6.3.7-14.6-2-22a45.4 45.4 0 00-4.5-9.3 13.6 13.6 0 00-4.4-4.8l-1-.2-.7.8c-.8 1.3-1.4 4.2-1.4 9.5z" stroke="#041FCB" stroke-width="4"/></svg>