<svg width="187" height="189" viewBox="0 0 187 189" fill="none" xmlns="http://www.w3.org/2000/svg"><circle cx="93.1" cy="93.1" r="75" transform="rotate(-15 93 93)" stroke="#041FCB" stroke-width="2"/><path d="M121 85.6c5.5 20.2 7.2 39.2 5.5 53.8a51 51 0 01-4.9 17.8c-2.4 4.5-5.5 7.3-9.1 8.3-3.7 1-7.7 0-12-2.6a51 51 0 01-13.2-13 150.6 150.6 0 01-22.2-49.3c-5.4-20.2-7-39.3-5.4-53.8a51 51 0 014.9-17.9c2.4-4.5 5.4-7.3 9-8.3 3.7-1 7.8 0 12.1 2.7a51 51 0 0113.2 13A150.6 150.6 0 01121 85.6z" stroke="#041FCB" stroke-width="2"/><path d="M147.2 78.6c5.4 20 4.3 39.8-1.8 55.5-6 15.7-17 27.2-31.5 31A48.3 48.3 0 0171.2 154a90.7 90.7 0 01-29.3-47.2 90.7 90.7 0 011.7-55.5c6.1-15.7 17.1-27.2 31.5-31 14.4-4 29.7.6 42.8 11.1 13 10.5 23.9 27.1 29.3 47.2zM19.4 111.8l146.8-39.4M72.4 19.9l39.4 146.9M21.7 73.9l123.6-33.1M40.6 144.4l123.6-33.1" stroke="#041FCB" stroke-width="2"/></svg>